<?xml version="1.0" standalone="no"?>
<!DOCTYPE svg PUBLIC "-//W3C//DTD SVG 20010904//EN"
 "http://www.w3.org/TR/2001/REC-SVG-20010904/DTD/svg10.dtd">
<svg version="1.0" xmlns="http://www.w3.org/2000/svg"
 width="320.000000pt" height="320.000000pt" viewBox="0 0 320.000000 320.000000"
 preserveAspectRatio="xMidYMid meet">
<metadata>
Created by potrace 1.14, written by Peter Selinger 2001-2017
</metadata>
<g transform="translate(0.000000,320.000000) scale(0.100000,-0.100000)"
fill="#000000" stroke="none">
<path d="M1566 3088 c-16 -62 -38 -145 -49 -185 l-19 -72 -71 -11 c-40 -6 -93
-17 -119 -24 l-47 -13 -48 69 c-26 38 -76 109 -111 159 l-63 89 -42 -21 c-73
-36 -192 -94 -195 -95 -1 -1 7 -35 18 -75 34 -118 49 -177 55 -206 2 -16 9
-43 14 -60 9 -32 8 -34 -52 -82 -34 -27 -73 -61 -86 -75 -14 -14 -30 -26 -38
-26 -7 0 -50 17 -95 39 -272 127 -248 123 -290 59 -19 -29 -52 -79 -73 -110
l-38 -57 138 -134 c131 -128 136 -136 124 -158 -7 -13 -25 -62 -40 -108 -15
-46 -33 -87 -40 -91 -8 -4 -45 -11 -84 -14 -87 -8 -181 -17 -220 -21 -16 -2
-39 -4 -51 -4 -11 -1 -21 -7 -21 -13 -1 -30 -15 -205 -19 -229 -4 -26 -1 -27
124 -59 274 -70 252 -62 252 -90 0 -14 7 -56 15 -95 28 -129 29 -120 -15 -149
-21 -14 -84 -58 -138 -98 -55 -40 -107 -77 -116 -83 -14 -9 -9 -25 43 -131
l59 -121 124 34 c67 19 150 43 183 52 60 18 60 18 75 -3 18 -27 55 -69 102
-120 21 -22 38 -43 38 -47 0 -4 -21 -52 -46 -106 -66 -140 -104 -223 -107
-234 -1 -4 48 -42 108 -82 l110 -75 136 138 137 138 48 -23 c27 -13 77 -32
112 -41 34 -9 63 -21 63 -25 1 -5 2 -12 3 -16 2 -5 6 -44 10 -88 22 -219 27
-269 29 -272 2 -1 38 -4 82 -8 44 -3 104 -7 133 -9 28 -3 52 -2 52 0 0 10 92
359 96 363 2 2 38 10 81 18 93 16 118 21 118 23 0 1 8 3 18 5 19 3 23 -2 167
-205 36 -51 68 -94 73 -97 9 -6 237 104 237 114 0 5 -9 40 -20 78 -42 145 -62
221 -66 256 -4 33 -1 39 43 74 26 21 66 56 89 77 l41 39 84 -40 c46 -21 125
-57 174 -79 l90 -41 17 22 c10 12 22 27 28 34 5 7 10 15 10 18 0 3 21 37 47
76 l46 70 -49 51 c-27 27 -88 88 -136 135 l-86 85 22 51 c13 29 31 77 41 107
10 30 21 58 24 63 4 4 32 10 62 12 29 3 68 7 84 10 17 2 74 7 128 10 53 4 100
12 103 17 3 5 8 66 11 136 l5 128 -139 34 c-76 19 -140 35 -143 35 -75 18 -90
29 -90 64 0 25 -23 144 -35 181 -4 12 7 26 37 46 41 28 150 107 193 140 11 8
32 23 47 32 21 12 26 21 22 37 -5 16 -102 215 -108 222 -1 1 -19 -2 -40 -8
-21 -6 -46 -12 -55 -15 -9 -2 -74 -20 -145 -39 -71 -19 -130 -34 -131 -33 -12
21 -80 102 -112 136 -24 24 -43 44 -43 46 0 1 9 20 19 42 22 44 70 150 111
241 33 72 42 59 -99 153 l-93 62 -134 -136 c-74 -75 -136 -136 -138 -136 -2 0
-35 13 -72 29 -38 16 -86 32 -107 36 -42 8 -49 16 -53 59 -1 17 -5 65 -9 106
-3 41 -10 104 -14 140 -5 36 -7 68 -5 72 10 17 -26 23 -186 33 l-85 5 -29
-112z m60 -770 c3 -4 12 -4 20 -1 29 11 220 -33 249 -57 5 -4 14 -8 18 -8 19
-1 96 -45 137 -79 56 -46 147 -141 163 -169 105 -188 118 -234 116 -419 -1
-146 -10 -195 -55 -292 -52 -112 -173 -250 -279 -318 -53 -34 -143 -72 -188
-80 -14 -3 -38 -10 -52 -15 -14 -5 -88 -8 -163 -6 -149 4 -203 17 -331 79 -62
31 -191 145 -249 222 -34 44 -98 182 -112 240 -18 76 -30 224 -19 231 3 2 5
14 4 28 -2 13 5 53 15 87 9 35 19 70 21 78 9 32 73 148 103 186 43 55 63 75
126 129 73 62 66 57 142 94 73 35 152 58 231 67 28 3 53 7 54 9 5 5 42 0 49
-6z"/>
<path d="M1431 2108 c-12 -12 -21 -27 -21 -33 0 -20 35 -45 66 -46 24 0 26 -2
9 -8 -29 -12 -54 -2 -78 30 -33 46 -109 31 -135 -26 -20 -43 -14 -60 23 -78
41 -19 58 -15 104 27 l35 31 -25 -32 c-32 -41 -70 -58 -98 -43 -12 6 -21 8
-21 5 0 -3 -10 1 -21 9 -19 13 -23 13 -39 -2 -25 -24 -40 -57 -40 -86 0 -31
-2 -30 43 -11 20 8 47 14 59 14 20 -1 21 -2 3 -6 -11 -2 -41 -13 -67 -25 -37
-17 -52 -30 -68 -64 -25 -55 -27 -119 -2 -128 33 -12 67 -36 52 -36 -9 0 -25
7 -37 15 -18 13 -22 12 -36 -3 -37 -41 -47 -116 -23 -182 11 -30 17 -35 47
-36 44 -1 119 36 152 76 28 33 42 85 34 125 -2 14 0 28 5 31 6 4 9 -15 6 -50
l-3 -55 36 5 c20 4 39 2 42 -3 3 -5 -7 -8 -23 -5 -25 4 -38 -4 -82 -48 -51
-52 -110 -86 -159 -93 -29 -5 -35 -25 -15 -52 10 -14 25 -19 57 -18 l44 1 -37
-10 c-36 -9 -38 -12 -32 -41 10 -59 63 -124 105 -130 8 -2 20 -6 27 -11 9 -5
28 7 57 37 41 41 50 62 46 107 -1 12 1 11 9 -2 14 -23 -7 -72 -51 -122 l-33
-38 23 -19 c13 -11 36 -19 51 -19 31 0 103 30 140 59 l24 19 1 221 0 220 -23
-22 c-12 -11 -27 -38 -34 -58 -9 -33 -8 -45 11 -88 24 -58 26 -94 5 -136 -8
-16 -12 -21 -8 -10 17 55 16 93 -5 133 -32 63 -27 108 18 165 13 15 12 17 -12
17 -14 0 -38 5 -54 11 -29 11 -113 87 -113 102 0 5 17 -9 38 -31 20 -22 48
-45 61 -52 33 -17 99 -22 107 -8 14 22 10 241 -5 275 -38 86 -111 53 -74 -34
7 -18 13 -43 12 -55 -1 -25 0 -26 -24 53 -13 44 -14 61 -6 78 15 27 51 27 79
1 12 -11 22 -20 24 -20 9 0 0 159 -10 177 -27 49 -108 67 -141 31z m110 -95
c13 -17 13 -17 -6 -3 -11 8 -22 16 -24 17 -2 2 0 3 6 3 6 0 17 -8 24 -17z
m-153 -183 c23 -17 42 -32 42 -35 0 -3 -19 8 -41 25 -23 16 -45 27 -50 25 -4
-3 -10 -1 -14 5 -13 20 23 9 63 -20z m-38 -183 c0 -7 -6 -3 -12 8 -6 11 -16
27 -22 35 -6 9 -1 5 12 -8 12 -13 22 -28 22 -35z m92 -264 c28 -33 32 -48 5
-20 -35 36 -50 34 -86 -10 -17 -21 -31 -31 -31 -23 0 22 51 70 75 70 12 0 29
-8 37 -17z"/>
<path d="M1664 2115 c-52 -22 -64 -49 -64 -144 l0 -84 21 27 c23 30 60 34 84
10 8 -9 13 -24 10 -34 -3 -9 -12 -37 -20 -61 -12 -37 -14 -38 -8 -9 3 19 6 51
7 70 1 31 -2 35 -24 35 -16 0 -31 -11 -47 -34 -21 -31 -23 -45 -23 -162 0
-141 1 -143 67 -134 47 6 86 29 123 72 22 26 26 29 12 8 -41 -61 -93 -95 -148
-95 l-25 0 21 -30 c33 -46 36 -98 10 -150 -22 -42 -23 -79 -6 -135 4 -11 0 -6
-8 10 -21 43 -19 88 6 139 20 41 20 49 8 85 -7 22 -24 50 -36 62 l-24 22 0
-224 0 -224 34 -22 c84 -55 148 -66 187 -34 l24 20 -36 38 c-44 46 -59 74 -58
105 1 16 4 12 11 -15 6 -21 27 -54 50 -76 37 -37 42 -39 71 -29 51 18 77 39
98 79 27 54 25 87 -6 95 -14 3 -34 4 -45 1 -12 -3 -17 -1 -14 5 3 5 29 8 56 7
39 -2 53 1 63 14 17 24 9 52 -16 54 -42 3 -127 52 -155 88 -16 20 -42 44 -59
52 -29 13 -29 14 -4 10 26 -4 26 -2 27 48 0 33 8 67 21 91 11 22 20 35 21 31
0 -4 -7 -22 -16 -38 -21 -42 -20 -121 3 -167 21 -40 72 -74 148 -96 l47 -15
13 33 c32 77 31 125 -5 183 -19 31 -20 32 -47 18 -15 -8 -34 -15 -42 -15 -8 0
6 11 30 24 42 22 44 25 42 67 0 24 -6 56 -12 71 -12 33 -73 75 -121 83 -19 3
-36 8 -39 11 -10 9 47 2 84 -11 22 -8 41 -15 43 -15 7 0 0 43 -10 67 -23 50
-51 66 -74 43 -18 -18 -92 -16 -111 3 -10 9 -12 17 -6 17 6 0 13 -5 15 -11 5
-15 51 -15 89 1 27 12 30 17 25 44 -7 37 -61 86 -95 86 -15 0 -34 -12 -51 -32
-24 -28 -33 -32 -68 -30 -22 2 -51 -2 -64 -8 -22 -11 -22 -10 -4 4 11 9 39 16
63 16 35 0 46 5 59 25 16 24 16 27 -4 48 -25 27 -56 31 -98 12z m126 -137 c0
-6 -6 -5 -15 2 -8 7 -15 14 -15 16 0 2 7 1 15 -2 8 -4 15 -11 15 -16z m65
-128 c-3 -5 -13 -10 -20 -10 -8 0 -31 -15 -52 -32 -24 -21 -31 -24 -18 -9 31
37 108 80 90 51z m-178 -102 c-3 -7 -5 -2 -5 12 0 14 2 19 5 13 2 -7 2 -19 0
-25z m156 -382 c28 -31 34 -46 17 -46 -5 0 -10 5 -10 10 0 14 -46 60 -59 60
-14 0 -61 -52 -61 -67 0 -6 -4 -15 -10 -18 -15 -9 0 26 27 63 30 40 56 39 96
-2z"/>
</g>
</svg>
